<?xml version="1.0" encoding="UTF-8" standalone="no"?>
<!-- Created with Inkscape (http://www.inkscape.org/) -->

<svg
   xmlns:dc="http://purl.org/dc/elements/1.1/"
   xmlns:cc="http://creativecommons.org/ns#"
   xmlns:rdf="http://www.w3.org/1999/02/22-rdf-syntax-ns#"
   xmlns:svg="http://www.w3.org/2000/svg"
   xmlns="http://www.w3.org/2000/svg"
   xmlns:sodipodi="http://sodipodi.sourceforge.net/DTD/sodipodi-0.dtd"
   xmlns:inkscape="http://www.inkscape.org/namespaces/inkscape"
   width="210mm"
   height="297mm"
   id="svg2"
   version="1.1"
   inkscape:version="0.48.3.1 r9886"
   inkscape:export-filename="/home/anonytux/Documents/cour 2eme année/PPE/extranet/etudiant.png"
   inkscape:export-xdpi="90"
   inkscape:export-ydpi="90"
   sodipodi:docname="etudiant.svg">
  <defs
     id="defs4" />
  <sodipodi:namedview
     id="base"
     pagecolor="#ffffff"
     bordercolor="#666666"
     borderopacity="1.0"
     inkscape:pageopacity="0.0"
     inkscape:pageshadow="2"
     inkscape:zoom="3.6203867"
     inkscape:cx="403.10948"
     inkscape:cy="740.46603"
     inkscape:document-units="px"
     inkscape:current-layer="g3767"
     showgrid="false"
     inkscape:window-width="1855"
     inkscape:window-height="1056"
     inkscape:window-x="65"
     inkscape:window-y="24"
     inkscape:window-maximized="1" />
  <metadata
     id="metadata7">
    <rdf:RDF>
      <cc:Work
         rdf:about="">
        <dc:format>image/svg+xml</dc:format>
        <dc:type
           rdf:resource="http://purl.org/dc/dcmitype/StillImage" />
        <dc:title></dc:title>
      </cc:Work>
    </rdf:RDF>
  </metadata>
  <g
     inkscape:label="Calque 1"
     inkscape:groupmode="layer"
     id="layer1">
    <rect
       style="fill:#3d3d3d;fill-opacity:0"
       id="rect3761"
       width="54.674507"
       height="58.967655"
       x="277.16061"
       y="364.70084" />
    <g
       id="g3767"
       transform="translate(0.75761441,0.63134534)">
      <rect
         style="fill:#ffffff;fill-opacity:1;stroke:#7a7a7a;stroke-opacity:1"
         id="rect3795-5-3"
         width="62.5"
         height="72.14286"
         x="272.80591"
         y="561.59583"
         inkscape:export-filename="/home/anonytux/Documents/cour 2eme année/PPE/extranet/administration.png"
         inkscape:export-xdpi="90"
         inkscape:export-ydpi="90" />
      <rect
         style="fill:#ff6a31;fill-opacity:1;stroke:#7a7a7a;stroke-opacity:1"
         id="rect3795-5"
         width="62.5"
         height="72.14286"
         x="273.61639"
         y="448.29865"
         inkscape:export-filename="/home/anonytux/Documents/cour 2eme année/PPE/extranet/prof.png"
         inkscape:export-xdpi="90"
         inkscape:export-ydpi="90" />
      <rect
         style="fill:#ffffff;fill-opacity:1;stroke:#7a7a7a;stroke-opacity:1"
         id="rect3795"
         width="62.5"
         height="72.14286"
         x="273.34952"
         y="329.58798" />
      <path
         inkscape:connector-curvature="0"
         id="path3757"
         d="m 291.21276,389.84665 0,-13.89425 3.4724,2.2226 c 4.45918,2.85423 17.04675,11.12877 17.31266,11.38062 0.14844,0.14059 -18.105,12.62651 -20.46938,14.00168 -0.25094,0.14595 -0.31568,-2.66568 -0.31568,-13.71065 z"
         style="fill:#3d3d3d;fill-opacity:0;stroke:none" />
      <path
         inkscape:connector-curvature="0"
         id="path3759"
         d="m 291.21276,389.84171 0,-13.89919 2.0804,1.32052 c 1.92018,1.21881 17.09047,11.17598 18.38252,12.06554 0.55231,0.38027 0.28863,0.57787 -9.63186,7.21804 -5.60984,3.7549 -10.34176,6.9097 -10.51538,7.01068 -0.25094,0.14595 -0.31568,-2.66667 -0.31568,-13.71559 z"
         style="fill:none;stroke:none" />
      <path
         inkscape:connector-curvature="0"
         id="path3763"
         d="m 277.16061,401.82394 c 3.40926,-5.68211 18.56155,-10.10152 18.56155,-10.10152 l 0.25254,-4.29315 c 0,0 -9.34391,-6.9448 -8.08122,-25.00128 1.26269,-18.05647 29.29442,-16.28871 28.78934,4.04061 -0.50507,20.32932 -8.46002,21.08694 -8.46002,21.08694 0,0 0.12626,5.05076 0,4.92449 -0.12627,-0.12627 9.97526,3.283 12.2481,8.96511 -5.36879,0.68518 -43.31029,0.3788 -43.31029,0.3788 z"
         style="fill:#7a7a7a;fill-opacity:1;stroke:none"
         sodipodi:nodetypes="cccsscccc" />
      <path
         sodipodi:nodetypes="ccccc"
         inkscape:connector-curvature="0"
         id="path3765"
         d="m 291.17647,344.11898 42.80521,-1.6415 -18.05647,15.02602 -39.14341,1.89404 z"
         style="fill:#7a7a7a;fill-opacity:1;stroke:none" />
      <rect
         style="fill:none;fill-opacity:1;stroke:#e21212;stroke-width:1.57348954999999990;stroke-linejoin:round;stroke-miterlimit:4;stroke-opacity:1;stroke-dasharray:none"
         id="rect4334"
         width="64.658707"
         height="19.682928"
         x="-78.003334"
         y="467.00092"
         transform="matrix(0.70710678,-0.70710678,0.70710678,0.70710678,0,0)"
         inkscape:export-filename="/home/anonytux/Documents/cour 2eme année/PPE/extranet/privée.png"
         inkscape:export-xdpi="90"
         inkscape:export-ydpi="90" />
      <text
         xml:space="preserve"
         style="font-size:18.32727242px;font-style:normal;font-weight:normal;line-height:125%;letter-spacing:0px;word-spacing:0px;fill:#e21212;fill-opacity:1;stroke:none;font-family:Sans"
         x="-74.831322"
         y="483.76642"
         id="text4700"
         sodipodi:linespacing="125%"
         transform="matrix(0.70710678,-0.70710678,0.70710678,0.70710678,0,0)"><tspan
           sodipodi:role="line"
           id="tspan4702"
           x="-74.831322"
           y="483.76642">Privée</tspan></text>
      <path
         style="fill:#7a7a7a;fill-opacity:1;stroke:none"
         d="m 315.95717,510.02263 c -7.78979,-5.84235 -10.12673,-12.5935 -10.12673,-12.5935 l -6.62133,-0.12983 -0.12984,-2.85627 c 0,0 8.44774,-2.43673 8.1793,-19.21483 -0.25966,-16.22874 -20.80312,-17.22403 -21.35703,1.49305 -0.32074,10.8378 3.37558,12.46367 5.32302,15.90417 l -2.66151,3.89489 -4.8037,-0.90881 c 0,0 -9.00666,12.9096 -9.47759,13.50232 -1.51723,1.90956 8.86301,13.20353 10.64606,11.2107 l 18.64662,0.10944 c -0.735,-3.75554 0.13893,-6.74282 0.95769,-10.67099 0,0 9.0881,13.37249 12.72334,12.20402 3.63524,-1.16848 5.58269,-6.881 5.71253,-8.04947 0.12982,-1.16846 -0.3895,-2.33693 -0.3895,-2.33693 l 4.80371,-6.75115 -2.07728,-2.46677 9.73725,-25.18702 -1.2983,-1.03864 -9.47759,23.88872 c 0,0 -0.51933,-1.2983 -1.03864,-1.2983 -0.51932,0 -2.07729,1.94745 -2.07729,1.94745 0,0 -4.28437,4.93354 -3.76507,7.14064 0.51933,2.20711 -1.42812,2.20711 -1.42812,2.20711 z"
         id="path2996"
         inkscape:connector-curvature="0"
         sodipodi:nodetypes="ccccsscccscccssccccccscsc"
         inkscape:export-filename="/home/anonytux/Documents/cour 2eme année/PPE/extranet/prof.png"
         inkscape:export-xdpi="90"
         inkscape:export-ydpi="90" />
      <path
         style="fill:#ff6a31;fill-opacity:1;stroke:#000000;stroke-width:0.49608317px;stroke-linecap:butt;stroke-linejoin:miter;stroke-opacity:1"
         d="m 282.51162,605.59957 c -4.76064,-7.5168 -5.35794,-6.91964 -3.132,-18.79199 2.07266,-11.05478 15.15484,-11.68273 18.88354,-3.08396 1.27421,2.93846 0.9802,9.93095 1.50859,15.5603 0.0588,0.62618 -2.26569,-0.5178 -2.34104,0.0679 -0.60858,4.72979 -3.08088,7.84124 -4.01974,7.50059 -6.14765,-2.23057 -4.38478,4.76063 -4.38478,4.76063 l 3.38255,10.02239 c 0,0 -2.53201,5.27663 -4.88592,4.76064 -0.62947,-0.13799 0.87597,7.07089 0.87597,7.07089 l 17.34879,-0.0612 -0.68697,-8.41821 c 1.84489,-0.23395 4.82374,0.17796 5.53466,-0.43397 l 0.35488,-3.16874 5.7629,-0.25057 0.5011,-4.51007 -6.98152,-2.35773 -1.33058,1.10307 -4.96755,-0.74982 9.2707,-31.57054 4.00525,2.57663 -0.0743,2.69504 15.73799,7.3816 -2.66217,23.59611 -6.56756,-1.88667 -0.54211,2.46958 6.01345,1.62864 0.0785,2.33908 c 0,0 4.19387,0.17404 5.4063,1.51184 1.7476,1.92832 0.66848,5.50478 0.24148,7.98655 l -28.96917,0.30974 -17.5372,-0.0671 -15.53076,-0.17852 c 0,0 0.31073,-8.89487 1.56353,-15.65999 1.2528,-6.76511 8.14319,-12.15215 8.14319,-12.15215 z"
         id="path3807"
         inkscape:connector-curvature="0"
         sodipodi:nodetypes="csssssccscccccccccccccccccccsccccscc"
         inkscape:export-filename="/home/anonytux/Documents/cour 2eme année/PPE/extranet/administration.png"
         inkscape:export-xdpi="90"
         inkscape:export-ydpi="90" />
      <rect
         style="fill:none;stroke:#7a7a7a;stroke-opacity:1"
         id="rect3795-5-3-8"
         width="62.5"
         height="72.14286"
         x="272.83749"
         y="561.69055"
         inkscape:export-filename="/home/anonytux/Documents/cour 2eme année/PPE/extranet/administration.png"
         inkscape:export-xdpi="90"
         inkscape:export-ydpi="90" />
      <rect
         style="fill:#eeeeee;fill-opacity:1;stroke:#7a7a7a;stroke-opacity:1"
         id="rect3795-5-3-8-1"
         width="62.5"
         height="72.14286"
         x="273.51514"
         y="653.06299"
         inkscape:export-filename="/home/anonytux/Documents/cour 2eme année/PPE/extranet/bde.png"
         inkscape:export-xdpi="90"
         inkscape:export-ydpi="90" />
      <text
         xml:space="preserve"
         style="font-size:42.21899796px;font-style:normal;font-weight:normal;line-height:80.00000119%;letter-spacing:0px;word-spacing:0px;fill:#000000;fill-opacity:1;stroke:none;font-family:Sans"
         x="304.00357"
         y="688.07355"
         id="text3863"
         sodipodi:linespacing="80.000001%"
         inkscape:export-filename="/home/anonytux/Documents/cour 2eme année/PPE/extranet/bde.png"
         inkscape:export-xdpi="90"
         inkscape:export-ydpi="90"><tspan
           sodipodi:role="line"
           id="tspan3865"
           x="304.00357"
           y="688.07355"
           style="font-size:42.21899796px;font-weight:normal;text-align:center;line-height:80.00000119%;writing-mode:lr-tb;text-anchor:middle;-inkscape-font-specification:Sans"><tspan
             style="fill:#ff0000;fill-opacity:1"
             id="tspan3873">B</tspan><tspan
             style="fill:#19e7ff;fill-opacity:1"
             id="tspan4005">D</tspan></tspan><tspan
           sodipodi:role="line"
           x="304.00357"
           y="721.84875"
           id="tspan3867"
           style="font-size:42.21899796px;font-weight:normal;text-align:center;line-height:80.00000119%;writing-mode:lr-tb;text-anchor:middle;fill:#ffbc07;fill-opacity:1;-inkscape-font-specification:Sans">E</tspan></text>
      <path
         sodipodi:type="arc"
         style="fill:none;stroke:#7a7a7a;stroke-width:9.54598413;stroke-miterlimit:4;stroke-opacity:1;stroke-dasharray:none"
         id="path4007"
         sodipodi:cx="450.27548"
         sodipodi:cy="480.36331"
         sodipodi:rx="37.123104"
         sodipodi:ry="37.123104"
         d="m 487.39859,480.36331 c 0,20.50253 -16.62058,37.12311 -37.12311,37.12311 -20.50252,0 -37.1231,-16.62058 -37.1231,-37.12311 0,-20.50252 16.62058,-37.1231 37.1231,-37.1231 20.50253,0 37.12311,16.62058 37.12311,37.1231 z"
         transform="matrix(0.16918109,0,0,0.16918109,340.00474,486.00737)"
         inkscape:export-filename="/home/anonytux/Documents/cour 2eme année/PPE/extranet/loupe.png"
         inkscape:export-xdpi="90"
         inkscape:export-ydpi="90" />
      <rect
         style="fill:#7a7a7a;fill-opacity:1;stroke:#7a7a7a;stroke-width:1.0250355;stroke-miterlimit:4;stroke-opacity:1;stroke-dasharray:none"
         id="rect4009"
         width="1.6662623"
         height="11.022264"
         x="415.16812"
         y="573.56769"
         ry="0.62524068"
         inkscape:export-filename="/home/anonytux/Documents/cour 2eme année/PPE/extranet/loupe.png"
         inkscape:export-xdpi="90"
         inkscape:export-ydpi="90" />
      <path
         style="fill:#7a7a7a;stroke:#434343;stroke-width:1px;stroke-linecap:butt;stroke-linejoin:miter;stroke-opacity:1;fill-opacity:1"
         d="m 396.91893,639.42287 3.03835,36.46019 49.99465,1.65728 5.80049,-43.36553 -15.74417,-0.27621 -3.00772,5.26769 z"
         id="path3016"
         inkscape:connector-curvature="0"
         transform="translate(-0.75761441,-0.63134534)"
         sodipodi:nodetypes="ccccccc"
         inkscape:export-filename="/home/anonytux/Documents/cour 2eme année/PPE/extranet/file.png"
         inkscape:export-xdpi="90"
         inkscape:export-ydpi="90" />
      <rect
         style="fill:#ffffff;fill-opacity:1;stroke:#7a7a7a;stroke-opacity:1"
         id="rect3795-50"
         width="62.5"
         height="72.14286"
         x="272.65598"
         y="244.47107" />
      <path
         inkscape:connector-curvature="0"
         id="path3763-0"
         d="m 276.46707,316.70703 c 3.40926,-5.68211 18.56155,-10.10152 18.56155,-10.10152 l 0.25254,-4.29315 c 0,0 -9.34391,-6.9448 -8.08122,-25.00128 1.26269,-18.05647 29.29442,-16.28871 28.78934,4.04061 -0.50507,20.32932 -8.46002,21.08694 -8.46002,21.08694 0,0 0.12626,5.05076 0,4.92449 -0.12627,-0.12627 9.97526,3.283 12.2481,8.96511 -5.36879,0.68518 -43.31029,0.3788 -43.31029,0.3788 z"
         style="fill:#7a7a7a;fill-opacity:1;stroke:none"
         sodipodi:nodetypes="cccsscccc" />
      <path
         sodipodi:nodetypes="ccccc"
         inkscape:connector-curvature="0"
         id="path3765-5"
         d="m 290.48293,259.00207 42.80521,-1.6415 -18.05647,15.02602 -39.14341,1.89404 z"
         style="fill:#7a7a7a;fill-opacity:1;stroke:none" />
    </g>
    <path
       style="fill:#3d3d3d;fill-opacity:0"
       d="m 276.14769,355.92734 c 0.49086,-0.5035 3.23872,-3.41558 6.10635,-6.47129 2.86763,-3.05572 5.4594,-5.80828 5.75949,-6.11682 l 0.54562,-0.56098 20.36646,-0.78411 c 11.20155,-0.43127 20.37999,-0.77139 20.39653,-0.75583 0.0242,0.0228 -14.64904,12.27345 -15.7239,13.12785 l -0.2996,0.23815 -0.65272,-0.62619 c -4.44636,-4.26571 -10.8765,-5.68001 -16.57092,-3.64475 -2.5235,0.90194 -5.12839,2.92185 -6.48124,5.02576 -0.30143,0.46877 -0.61241,0.85278 -0.69106,0.85335 -0.0786,5.7e-4 -2.98406,0.14201 -6.45646,0.31432 -3.4724,0.17231 -6.5109,0.31389 -6.75223,0.31464 l -0.43878,0.001 0.89246,-0.91545 z"
       id="path3773"
       inkscape:connector-curvature="0" />
    <path
       style="fill:#3d3d3d;fill-opacity:0"
       d="m 276.14769,355.92734 c 0.49086,-0.5035 3.23872,-3.41558 6.10635,-6.47129 2.86763,-3.05572 5.4594,-5.80828 5.75949,-6.11682 l 0.54562,-0.56098 20.36646,-0.78411 c 11.20155,-0.43127 20.37999,-0.77139 20.39653,-0.75583 0.0242,0.0228 -14.64904,12.27345 -15.7239,13.12785 l -0.2996,0.23815 -0.65272,-0.62619 c -4.44636,-4.26571 -10.8765,-5.68001 -16.57092,-3.64475 -2.5235,0.90194 -5.12839,2.92185 -6.48124,5.02576 -0.30143,0.46877 -0.61241,0.85278 -0.69106,0.85335 -0.0786,5.7e-4 -2.98406,0.14201 -6.45646,0.31432 -3.4724,0.17231 -6.5109,0.31389 -6.75223,0.31464 l -0.43878,0.001 0.89246,-0.91545 z"
       id="path3775"
       inkscape:connector-curvature="0" />
    <path
       style="fill:#3d3d3d;fill-opacity:0"
       d="m 301.57601,404.31241 c -3.8186,-0.21386 -9.59138,-0.63467 -13.82647,-1.00788 -4.91031,-0.43272 -11.16706,-1.08131 -11.25218,-1.16643 -0.0316,-0.0316 0.27493,-0.5054 0.68124,-1.05283 1.488,-2.00479 4.14753,-3.88126 8.33755,-5.88269 2.12649,-1.01574 5.78965,-2.48127 8.13273,-3.25367 1.86143,-0.61362 1.67949,-0.32696 1.80525,-2.84438 l 0.0757,-1.51522 -0.84332,-0.82075 c -3.54921,-3.45423 -6.17449,-9.39354 -7.00455,-15.84677 -0.27145,-2.11032 -0.37419,-5.13826 -0.25097,-7.3963 0.12899,-2.36383 0.39089,-3.86623 0.93302,-5.35225 0.17643,-0.48359 0.3046,-0.89543 0.28482,-0.9152 -0.0198,-0.0198 -3.54742,0.13647 -7.83922,0.34722 -4.2918,0.21074 -7.82183,0.36461 -7.84451,0.34193 -0.0401,-0.0401 12.99349,-13.93672 14.45897,-15.41648 l 0.73103,-0.73816 22.02058,-0.84971 c 12.11132,-0.46734 22.03747,-0.83801 22.05811,-0.82373 0.0206,0.0143 -3.98436,3.37101 -8.9,7.45938 -4.91563,4.08837 -9.0657,7.54704 -9.22237,7.68593 l -0.28485,0.25254 0.58278,0.88389 c 0.7306,1.10807 1.57192,2.88637 1.91163,4.04061 0.64545,2.19307 0.72387,2.86538 0.70695,6.06091 -0.0406,7.66023 -1.49801,14.01693 -4.10429,17.90083 -1.02149,1.52223 -2.58016,2.85509 -3.93856,3.36796 l -0.35648,0.13459 0.0408,2.14051 0.0408,2.1405 0.75761,0.27126 c 1.43191,0.51267 4.54761,2.11875 6.06092,3.12427 2.4959,1.65841 4.30923,3.52749 5.14903,5.30737 0.3378,0.71592 0.36261,0.84884 0.23686,1.26857 -0.2941,0.98161 -1.60484,1.56998 -4.43887,1.99253 -1.56813,0.23381 -11.65695,0.34326 -14.89975,0.16165 l 0,0 z m 14.99727,-1.04835 c 2.07252,-0.32177 3.32655,-0.77955 3.52057,-1.28517 0.11702,-0.30495 -0.63803,-1.67692 -1.47712,-2.68399 -1.7552,-2.10658 -5.91598,-4.74382 -9.59253,-6.08004 l -1.19788,-0.43536 -0.027,-2.81607 c -0.026,-2.71381 -0.0181,-2.81607 0.21841,-2.81607 0.37186,0 1.25623,-0.37649 1.892,-0.80544 3.82706,-2.58215 6.20246,-10.13822 6.23694,-19.83955 0.0107,-3.00904 -0.005,-3.22313 -0.32775,-4.57608 -0.50483,-2.11377 -1.5213,-4.41139 -2.46988,-5.58283 l -0.24255,-0.29954 -11.28953,0.53139 c -6.20924,0.29226 -11.47893,0.5607 -11.71041,0.59653 -0.36304,0.0562 -0.46282,0.15675 -0.72604,0.73168 -0.37753,0.82465 -0.74909,2.25417 -0.94496,3.6356 -0.1986,1.40071 -0.20201,6.6367 -0.005,8.37252 0.78417,6.92502 3.14112,12.51142 6.87233,16.28871 l 1.12257,1.13642 -0.14366,2.32982 c -0.079,1.28141 -0.1559,2.33894 -0.17086,2.35008 -0.015,0.0111 -1.07839,0.37528 -2.36318,0.80921 -5.49735,1.8567 -9.96291,3.93726 -13.00571,6.0595 -0.95066,0.66305 -2.65165,2.24049 -2.65165,2.45904 0,0.30478 13.99547,1.5526 23.35978,2.08273 3.28604,0.18603 13.59065,0.0749 15.12354,-0.16309 l 0,0 z m -34.12704,-46.61099 c 3.4724,-0.17231 6.40482,-0.31375 6.51648,-0.31432 0.11166,-6.4e-4 0.41328,-0.34169 0.67026,-0.75803 0.70012,-1.13428 2.35712,-2.81128 3.59759,-3.64102 2.67317,-1.78806 6.1543,-2.64041 9.46191,-2.31674 3.78679,0.37056 6.96425,1.78053 9.59971,4.25978 l 1.00667,0.947 8.22881,-6.84998 c 4.52584,-3.76749 8.18113,-6.86382 8.12287,-6.88072 -0.0583,-0.0169 -9.35666,0.32671 -20.6631,0.76361 l -20.55717,0.79435 -0.29145,0.30593 c -1.09768,1.1522 -12.68544,13.50429 -12.87792,13.72736 l -0.24054,0.27877 0.55621,-0.001 c 0.30592,-7.4e-4 3.39727,-0.14232 6.86967,-0.31463 z m 19.49583,-0.94451 c 5.653,-0.27655 10.31233,-0.53808 10.35406,-0.58117 0.10112,-0.10441 -1.09784,-1.17756 -2.19696,-1.96645 -2.89851,-2.08039 -7.08014,-3.1141 -10.61079,-2.62303 -2.89187,0.40222 -5.32355,1.48247 -7.2392,3.21596 -0.66068,0.59785 -1.91112,2.13554 -1.91112,2.35013 0,0.16381 0.56859,0.14444 11.60401,-0.39544 z"
       id="path3777"
       inkscape:connector-curvature="0" />
    <path
       style="fill:#3d3d3d;fill-opacity:0"
       d="m 304.6696,403.40928 c -5.40056,-0.15385 -17.28358,-1.04637 -24.54393,-1.84347 l -1.94176,-0.21318 1.03143,-0.98479 c 2.58295,-2.46618 7.73474,-5.08635 14.46885,-7.35879 1.38896,-0.4687 2.53649,-0.85875 2.55008,-0.86678 0.0136,-0.008 0.0892,-1.12095 0.16796,-2.47318 l 0.14326,-2.45859 -1.24526,-1.26269 c -4.82413,-4.89168 -7.4333,-13.48267 -6.8645,-22.60217 0.13982,-2.24183 0.38135,-3.52037 0.95951,-5.07913 0.30875,-0.83243 0.37309,-0.91754 0.73529,-0.97269 0.7315,-0.11139 22.67712,-1.11182 22.85891,-1.04206 0.4531,0.17387 1.73725,2.53193 2.26822,4.16507 0.69203,2.12854 0.77724,2.81596 0.76213,6.14868 -0.0371,8.17581 -1.72193,14.76858 -4.65911,18.23076 -0.88664,1.04512 -1.80667,1.71335 -2.83648,2.06017 l -0.82414,0.27756 0,2.88987 0,2.88987 1.01015,0.34653 c 0.55558,0.19059 1.74882,0.70231 2.65165,1.13717 4.30158,2.07189 7.11614,4.36294 8.34919,6.79625 0.36324,0.71682 0.31438,0.83851 -0.50437,1.25621 -1.64398,0.83869 -6.80876,1.17954 -14.53708,0.95938 l 0,0 z"
       id="path3779"
       inkscape:connector-curvature="0" />
    <path
       style="fill:#3d3d3d;fill-opacity:0"
       d="m 304.6696,403.40928 c -5.40056,-0.15385 -17.28358,-1.04637 -24.54393,-1.84347 l -1.94176,-0.21318 1.03143,-0.98479 c 2.58295,-2.46618 7.73474,-5.08635 14.46885,-7.35879 1.38896,-0.4687 2.53649,-0.85875 2.55008,-0.86678 0.0136,-0.008 0.0892,-1.12095 0.16796,-2.47318 l 0.14326,-2.45859 -1.24526,-1.26269 c -4.82413,-4.89168 -7.4333,-13.48267 -6.8645,-22.60217 0.13982,-2.24183 0.38135,-3.52037 0.95951,-5.07913 0.30875,-0.83243 0.37309,-0.91754 0.73529,-0.97269 0.7315,-0.11139 22.67712,-1.11182 22.85891,-1.04206 0.4531,0.17387 1.73725,2.53193 2.26822,4.16507 0.69203,2.12854 0.77724,2.81596 0.76213,6.14868 -0.0371,8.17581 -1.72193,14.76858 -4.65911,18.23076 -0.88664,1.04512 -1.80667,1.71335 -2.83648,2.06017 l -0.82414,0.27756 0,2.88987 0,2.88987 1.01015,0.34653 c 0.55558,0.19059 1.74882,0.70231 2.65165,1.13717 4.30158,2.07189 7.11614,4.36294 8.34919,6.79625 0.36324,0.71682 0.31438,0.83851 -0.50437,1.25621 -1.64398,0.83869 -6.80876,1.17954 -14.53708,0.95938 l 0,0 z"
       id="path3781"
       inkscape:connector-curvature="0" />
    <path
       style="fill:#333333;fill-opacity:0"
       d="m 304.6696,403.40928 c -5.40056,-0.15385 -17.28358,-1.04637 -24.54393,-1.84347 l -1.94176,-0.21318 1.03143,-0.98479 c 2.58295,-2.46618 7.73474,-5.08635 14.46885,-7.35879 1.38896,-0.4687 2.53649,-0.85875 2.55008,-0.86678 0.0136,-0.008 0.0892,-1.12095 0.16796,-2.47318 l 0.14326,-2.45859 -1.24526,-1.26269 c -4.82413,-4.89168 -7.4333,-13.48267 -6.8645,-22.60217 0.13982,-2.24183 0.38135,-3.52037 0.95951,-5.07913 0.30875,-0.83243 0.37309,-0.91754 0.73529,-0.97269 0.7315,-0.11139 22.67712,-1.11182 22.85891,-1.04206 0.4531,0.17387 1.73725,2.53193 2.26822,4.16507 0.69203,2.12854 0.77724,2.81596 0.76213,6.14868 -0.0371,8.17581 -1.72193,14.76858 -4.65911,18.23076 -0.88664,1.04512 -1.80667,1.71335 -2.83648,2.06017 l -0.82414,0.27756 0,2.88987 0,2.88987 1.01015,0.34653 c 0.55558,0.19059 1.74882,0.70231 2.65165,1.13717 4.30158,2.07189 7.11614,4.36294 8.34919,6.79625 0.36324,0.71682 0.31438,0.83851 -0.50437,1.25621 -1.64398,0.83869 -6.80876,1.17954 -14.53708,0.95938 l 0,0 z"
       id="path3783"
       inkscape:connector-curvature="0" />
    <path
       style="fill:#333333;fill-opacity:0"
       d="m 304.6696,403.40928 c -5.40056,-0.15385 -17.28358,-1.04637 -24.54393,-1.84347 l -1.94176,-0.21318 1.03143,-0.98479 c 2.58295,-2.46618 7.73474,-5.08635 14.46885,-7.35879 1.38896,-0.4687 2.53649,-0.85875 2.55008,-0.86678 0.0136,-0.008 0.0892,-1.12095 0.16796,-2.47318 l 0.14326,-2.45859 -1.24526,-1.26269 c -4.82413,-4.89168 -7.4333,-13.48267 -6.8645,-22.60217 0.13982,-2.24183 0.38135,-3.52037 0.95951,-5.07913 0.30875,-0.83243 0.37309,-0.91754 0.73529,-0.97269 0.7315,-0.11139 22.67712,-1.11182 22.85891,-1.04206 0.4531,0.17387 1.73725,2.53193 2.26822,4.16507 0.69203,2.12854 0.77724,2.81596 0.76213,6.14868 -0.0371,8.17581 -1.72193,14.76858 -4.65911,18.23076 -0.88664,1.04512 -1.80667,1.71335 -2.83648,2.06017 l -0.82414,0.27756 0,2.88987 0,2.88987 1.01015,0.34653 c 0.55558,0.19059 1.74882,0.70231 2.65165,1.13717 4.30158,2.07189 7.11614,4.36294 8.34919,6.79625 0.36324,0.71682 0.31438,0.83851 -0.50437,1.25621 -1.64398,0.83869 -6.80876,1.17954 -14.53708,0.95938 l 0,0 z"
       id="path3785"
       inkscape:connector-curvature="0" />
    <path
       style="fill:#333333;fill-opacity:0"
       d="m 304.6696,403.40928 c -5.40056,-0.15385 -17.28358,-1.04637 -24.54393,-1.84347 l -1.94176,-0.21318 1.03143,-0.98479 c 2.58295,-2.46618 7.73474,-5.08635 14.46885,-7.35879 1.38896,-0.4687 2.53649,-0.85875 2.55008,-0.86678 0.0136,-0.008 0.0892,-1.12095 0.16796,-2.47318 l 0.14326,-2.45859 -1.24526,-1.26269 c -4.82413,-4.89168 -7.4333,-13.48267 -6.8645,-22.60217 0.13982,-2.24183 0.38135,-3.52037 0.95951,-5.07913 0.30875,-0.83243 0.37309,-0.91754 0.73529,-0.97269 0.7315,-0.11139 22.67712,-1.11182 22.85891,-1.04206 0.4531,0.17387 1.73725,2.53193 2.26822,4.16507 0.69203,2.12854 0.77724,2.81596 0.76213,6.14868 -0.0371,8.17581 -1.72193,14.76858 -4.65911,18.23076 -0.88664,1.04512 -1.80667,1.71335 -2.83648,2.06017 l -0.82414,0.27756 0,2.88987 0,2.88987 1.01015,0.34653 c 0.55558,0.19059 1.74882,0.70231 2.65165,1.13717 4.30158,2.07189 7.11614,4.36294 8.34919,6.79625 0.36324,0.71682 0.31438,0.83851 -0.50437,1.25621 -1.64398,0.83869 -6.80876,1.17954 -14.53708,0.95938 l 0,0 z"
       id="path3787"
       inkscape:connector-curvature="0" />
    <path
       style="fill:#333333;fill-opacity:0"
       d="m 301.57601,404.31241 c -3.8186,-0.21386 -9.59138,-0.63467 -13.82647,-1.00788 -4.91031,-0.43272 -11.16706,-1.08131 -11.25218,-1.16643 -0.0316,-0.0316 0.27493,-0.5054 0.68124,-1.05283 1.488,-2.00479 4.14753,-3.88126 8.33755,-5.88269 2.12649,-1.01574 5.78965,-2.48127 8.13273,-3.25367 1.86143,-0.61362 1.67949,-0.32696 1.80525,-2.84438 l 0.0757,-1.51522 -0.84332,-0.82075 c -3.54921,-3.45423 -6.17449,-9.39354 -7.00455,-15.84677 -0.27145,-2.11032 -0.37419,-5.13826 -0.25097,-7.3963 0.12899,-2.36383 0.39089,-3.86623 0.93302,-5.35225 0.17643,-0.48359 0.3046,-0.89543 0.28482,-0.9152 -0.0198,-0.0198 -3.54742,0.13647 -7.83922,0.34722 -4.2918,0.21074 -7.82183,0.36461 -7.84451,0.34193 -0.0401,-0.0401 12.99349,-13.93672 14.45897,-15.41648 l 0.73103,-0.73816 22.02058,-0.84971 c 12.11132,-0.46734 22.03747,-0.83801 22.05811,-0.82373 0.0206,0.0143 -3.98436,3.37101 -8.9,7.45938 -4.91563,4.08837 -9.0657,7.54704 -9.22237,7.68593 l -0.28485,0.25254 0.58278,0.88389 c 0.7306,1.10807 1.57192,2.88637 1.91163,4.04061 0.64545,2.19307 0.72387,2.86538 0.70695,6.06091 -0.0406,7.66023 -1.49801,14.01693 -4.10429,17.90083 -1.02149,1.52223 -2.58016,2.85509 -3.93856,3.36796 l -0.35648,0.13459 0.0408,2.14051 0.0408,2.1405 0.75761,0.27126 c 1.43191,0.51267 4.54761,2.11875 6.06092,3.12427 2.4959,1.65841 4.30923,3.52749 5.14903,5.30737 0.3378,0.71592 0.36261,0.84884 0.23686,1.26857 -0.2941,0.98161 -1.60484,1.56998 -4.43887,1.99253 -1.56813,0.23381 -11.65695,0.34326 -14.89975,0.16165 l 0,0 z m 14.99727,-1.04835 c 2.07252,-0.32177 3.32655,-0.77955 3.52057,-1.28517 0.11702,-0.30495 -0.63803,-1.67692 -1.47712,-2.68399 -1.7552,-2.10658 -5.91598,-4.74382 -9.59253,-6.08004 l -1.19788,-0.43536 -0.027,-2.81607 c -0.026,-2.71381 -0.0181,-2.81607 0.21841,-2.81607 0.37186,0 1.25623,-0.37649 1.892,-0.80544 3.82706,-2.58215 6.20246,-10.13822 6.23694,-19.83955 0.0107,-3.00904 -0.005,-3.22313 -0.32775,-4.57608 -0.50483,-2.11377 -1.5213,-4.41139 -2.46988,-5.58283 l -0.24255,-0.29954 -11.28953,0.53139 c -6.20924,0.29226 -11.47893,0.5607 -11.71041,0.59653 -0.36304,0.0562 -0.46282,0.15675 -0.72604,0.73168 -0.37753,0.82465 -0.74909,2.25417 -0.94496,3.6356 -0.1986,1.40071 -0.20201,6.6367 -0.005,8.37252 0.78417,6.92502 3.14112,12.51142 6.87233,16.28871 l 1.12257,1.13642 -0.14366,2.32982 c -0.079,1.28141 -0.1559,2.33894 -0.17086,2.35008 -0.015,0.0111 -1.07839,0.37528 -2.36318,0.80921 -5.49735,1.8567 -9.96291,3.93726 -13.00571,6.0595 -0.95066,0.66305 -2.65165,2.24049 -2.65165,2.45904 0,0.30478 13.99547,1.5526 23.35978,2.08273 3.28604,0.18603 13.59065,0.0749 15.12354,-0.16309 l 0,0 z m -34.12704,-46.61099 c 3.4724,-0.17231 6.40482,-0.31375 6.51648,-0.31432 0.11166,-6.4e-4 0.41328,-0.34169 0.67026,-0.75803 0.70012,-1.13428 2.35712,-2.81128 3.59759,-3.64102 2.67317,-1.78806 6.1543,-2.64041 9.46191,-2.31674 3.78679,0.37056 6.96425,1.78053 9.59971,4.25978 l 1.00667,0.947 8.22881,-6.84998 c 4.52584,-3.76749 8.18113,-6.86382 8.12287,-6.88072 -0.0583,-0.0169 -9.35666,0.32671 -20.6631,0.76361 l -20.55717,0.79435 -0.29145,0.30593 c -1.09768,1.1522 -12.68544,13.50429 -12.87792,13.72736 l -0.24054,0.27877 0.55621,-0.001 c 0.30592,-7.4e-4 3.39727,-0.14232 6.86967,-0.31463 z m 19.49583,-0.94451 c 5.653,-0.27655 10.31233,-0.53808 10.35406,-0.58117 0.10112,-0.10441 -1.09784,-1.17756 -2.19696,-1.96645 -2.89851,-2.08039 -7.08014,-3.1141 -10.61079,-2.62303 -2.89187,0.40222 -5.32355,1.48247 -7.2392,3.21596 -0.66068,0.59785 -1.91112,2.13554 -1.91112,2.35013 0,0.16381 0.56859,0.14444 11.60401,-0.39544 z"
       id="path3789"
       inkscape:connector-curvature="0" />
    <path
       style="fill:#333333;fill-opacity:0"
       d="m 301.57601,404.31241 c -3.8186,-0.21386 -9.59138,-0.63467 -13.82647,-1.00788 -4.91031,-0.43272 -11.16706,-1.08131 -11.25218,-1.16643 -0.0316,-0.0316 0.27493,-0.5054 0.68124,-1.05283 1.488,-2.00479 4.14753,-3.88126 8.33755,-5.88269 2.12649,-1.01574 5.78965,-2.48127 8.13273,-3.25367 1.86143,-0.61362 1.67949,-0.32696 1.80525,-2.84438 l 0.0757,-1.51522 -0.84332,-0.82075 c -3.54921,-3.45423 -6.17449,-9.39354 -7.00455,-15.84677 -0.27145,-2.11032 -0.37419,-5.13826 -0.25097,-7.3963 0.12899,-2.36383 0.39089,-3.86623 0.93302,-5.35225 0.17643,-0.48359 0.3046,-0.89543 0.28482,-0.9152 -0.0198,-0.0198 -3.54742,0.13647 -7.83922,0.34722 -4.2918,0.21074 -7.82183,0.36461 -7.84451,0.34193 -0.0401,-0.0401 12.99349,-13.93672 14.45897,-15.41648 l 0.73103,-0.73816 22.02058,-0.84971 c 12.11132,-0.46734 22.03747,-0.83801 22.05811,-0.82373 0.0206,0.0143 -3.98436,3.37101 -8.9,7.45938 -4.91563,4.08837 -9.0657,7.54704 -9.22237,7.68593 l -0.28485,0.25254 0.58278,0.88389 c 0.7306,1.10807 1.57192,2.88637 1.91163,4.04061 0.64545,2.19307 0.72387,2.86538 0.70695,6.06091 -0.0406,7.66023 -1.49801,14.01693 -4.10429,17.90083 -1.02149,1.52223 -2.58016,2.85509 -3.93856,3.36796 l -0.35648,0.13459 0.0408,2.14051 0.0408,2.1405 0.75761,0.27126 c 1.43191,0.51267 4.54761,2.11875 6.06092,3.12427 2.4959,1.65841 4.30923,3.52749 5.14903,5.30737 0.3378,0.71592 0.36261,0.84884 0.23686,1.26857 -0.2941,0.98161 -1.60484,1.56998 -4.43887,1.99253 -1.56813,0.23381 -11.65695,0.34326 -14.89975,0.16165 l 0,0 z m 14.99727,-1.04835 c 2.07252,-0.32177 3.32655,-0.77955 3.52057,-1.28517 0.11702,-0.30495 -0.63803,-1.67692 -1.47712,-2.68399 -1.7552,-2.10658 -5.91598,-4.74382 -9.59253,-6.08004 l -1.19788,-0.43536 -0.027,-2.81607 c -0.026,-2.71381 -0.0181,-2.81607 0.21841,-2.81607 0.37186,0 1.25623,-0.37649 1.892,-0.80544 3.82706,-2.58215 6.20246,-10.13822 6.23694,-19.83955 0.0107,-3.00904 -0.005,-3.22313 -0.32775,-4.57608 -0.50483,-2.11377 -1.5213,-4.41139 -2.46988,-5.58283 l -0.24255,-0.29954 -11.28953,0.53139 c -6.20924,0.29226 -11.47893,0.5607 -11.71041,0.59653 -0.36304,0.0562 -0.46282,0.15675 -0.72604,0.73168 -0.37753,0.82465 -0.74909,2.25417 -0.94496,3.6356 -0.1986,1.40071 -0.20201,6.6367 -0.005,8.37252 0.78417,6.92502 3.14112,12.51142 6.87233,16.28871 l 1.12257,1.13642 -0.14366,2.32982 c -0.079,1.28141 -0.1559,2.33894 -0.17086,2.35008 -0.015,0.0111 -1.07839,0.37528 -2.36318,0.80921 -5.49735,1.8567 -9.96291,3.93726 -13.00571,6.0595 -0.95066,0.66305 -2.65165,2.24049 -2.65165,2.45904 0,0.30478 13.99547,1.5526 23.35978,2.08273 3.28604,0.18603 13.59065,0.0749 15.12354,-0.16309 l 0,0 z m -34.12704,-46.61099 c 3.4724,-0.17231 6.40482,-0.31375 6.51648,-0.31432 0.11166,-6.4e-4 0.41328,-0.34169 0.67026,-0.75803 0.70012,-1.13428 2.35712,-2.81128 3.59759,-3.64102 2.67317,-1.78806 6.1543,-2.64041 9.46191,-2.31674 3.78679,0.37056 6.96425,1.78053 9.59971,4.25978 l 1.00667,0.947 8.22881,-6.84998 c 4.52584,-3.76749 8.18113,-6.86382 8.12287,-6.88072 -0.0583,-0.0169 -9.35666,0.32671 -20.6631,0.76361 l -20.55717,0.79435 -0.29145,0.30593 c -1.09768,1.1522 -12.68544,13.50429 -12.87792,13.72736 l -0.24054,0.27877 0.55621,-0.001 c 0.30592,-7.4e-4 3.39727,-0.14232 6.86967,-0.31463 z m 19.49583,-0.94451 c 5.653,-0.27655 10.31233,-0.53808 10.35406,-0.58117 0.10112,-0.10441 -1.09784,-1.17756 -2.19696,-1.96645 -2.89851,-2.08039 -7.08014,-3.1141 -10.61079,-2.62303 -2.89187,0.40222 -5.32355,1.48247 -7.2392,3.21596 -0.66068,0.59785 -1.91112,2.13554 -1.91112,2.35013 0,0.16381 0.56859,0.14444 11.60401,-0.39544 z"
       id="path3791"
       inkscape:connector-curvature="0" />
    <path
       style="fill:#333333;fill-opacity:0"
       d="m 301.57601,404.31241 c -3.8186,-0.21386 -9.59138,-0.63467 -13.82647,-1.00788 -4.91031,-0.43272 -11.16706,-1.08131 -11.25218,-1.16643 -0.0316,-0.0316 0.27493,-0.5054 0.68124,-1.05283 1.488,-2.00479 4.14753,-3.88126 8.33755,-5.88269 2.12649,-1.01574 5.78965,-2.48127 8.13273,-3.25367 1.86143,-0.61362 1.67949,-0.32696 1.80525,-2.84438 l 0.0757,-1.51522 -0.84332,-0.82075 c -3.54921,-3.45423 -6.17449,-9.39354 -7.00455,-15.84677 -0.27145,-2.11032 -0.37419,-5.13826 -0.25097,-7.3963 0.12899,-2.36383 0.39089,-3.86623 0.93302,-5.35225 0.17643,-0.48359 0.3046,-0.89543 0.28482,-0.9152 -0.0198,-0.0198 -3.54742,0.13647 -7.83922,0.34722 -4.2918,0.21074 -7.82183,0.36461 -7.84451,0.34193 -0.0401,-0.0401 12.99349,-13.93672 14.45897,-15.41648 l 0.73103,-0.73816 22.02058,-0.84971 c 12.11132,-0.46734 22.03747,-0.83801 22.05811,-0.82373 0.0206,0.0143 -3.98436,3.37101 -8.9,7.45938 -4.91563,4.08837 -9.0657,7.54704 -9.22237,7.68593 l -0.28485,0.25254 0.58278,0.88389 c 0.7306,1.10807 1.57192,2.88637 1.91163,4.04061 0.64545,2.19307 0.72387,2.86538 0.70695,6.06091 -0.0406,7.66023 -1.49801,14.01693 -4.10429,17.90083 -1.02149,1.52223 -2.58016,2.85509 -3.93856,3.36796 l -0.35648,0.13459 0.0408,2.14051 0.0408,2.1405 0.75761,0.27126 c 1.43191,0.51267 4.54761,2.11875 6.06092,3.12427 2.4959,1.65841 4.30923,3.52749 5.14903,5.30737 0.3378,0.71592 0.36261,0.84884 0.23686,1.26857 -0.2941,0.98161 -1.60484,1.56998 -4.43887,1.99253 -1.56813,0.23381 -11.65695,0.34326 -14.89975,0.16165 l 0,0 z m 14.99727,-1.04835 c 2.07252,-0.32177 3.32655,-0.77955 3.52057,-1.28517 0.11702,-0.30495 -0.63803,-1.67692 -1.47712,-2.68399 -1.7552,-2.10658 -5.91598,-4.74382 -9.59253,-6.08004 l -1.19788,-0.43536 -0.027,-2.81607 c -0.026,-2.71381 -0.0181,-2.81607 0.21841,-2.81607 0.37186,0 1.25623,-0.37649 1.892,-0.80544 3.82706,-2.58215 6.20246,-10.13822 6.23694,-19.83955 0.0107,-3.00904 -0.005,-3.22313 -0.32775,-4.57608 -0.50483,-2.11377 -1.5213,-4.41139 -2.46988,-5.58283 l -0.24255,-0.29954 -11.28953,0.53139 c -6.20924,0.29226 -11.47893,0.5607 -11.71041,0.59653 -0.36304,0.0562 -0.46282,0.15675 -0.72604,0.73168 -0.37753,0.82465 -0.74909,2.25417 -0.94496,3.6356 -0.1986,1.40071 -0.20201,6.6367 -0.005,8.37252 0.78417,6.92502 3.14112,12.51142 6.87233,16.28871 l 1.12257,1.13642 -0.14366,2.32982 c -0.079,1.28141 -0.1559,2.33894 -0.17086,2.35008 -0.015,0.0111 -1.07839,0.37528 -2.36318,0.80921 -5.49735,1.8567 -9.96291,3.93726 -13.00571,6.0595 -0.95066,0.66305 -2.65165,2.24049 -2.65165,2.45904 0,0.30478 13.99547,1.5526 23.35978,2.08273 3.28604,0.18603 13.59065,0.0749 15.12354,-0.16309 l 0,0 z m -34.12704,-46.61099 c 3.4724,-0.17231 6.40482,-0.31375 6.51648,-0.31432 0.11166,-6.4e-4 0.41328,-0.34169 0.67026,-0.75803 0.70012,-1.13428 2.35712,-2.81128 3.59759,-3.64102 2.67317,-1.78806 6.1543,-2.64041 9.46191,-2.31674 3.78679,0.37056 6.96425,1.78053 9.59971,4.25978 l 1.00667,0.947 8.22881,-6.84998 c 4.52584,-3.76749 8.18113,-6.86382 8.12287,-6.88072 -0.0583,-0.0169 -9.35666,0.32671 -20.6631,0.76361 l -20.55717,0.79435 -0.29145,0.30593 c -1.09768,1.1522 -12.68544,13.50429 -12.87792,13.72736 l -0.24054,0.27877 0.55621,-0.001 c 0.30592,-7.4e-4 3.39727,-0.14232 6.86967,-0.31463 z m 19.49583,-0.94451 c 5.653,-0.27655 10.31233,-0.53808 10.35406,-0.58117 0.10112,-0.10441 -1.09784,-1.17756 -2.19696,-1.96645 -2.89851,-2.08039 -7.08014,-3.1141 -10.61079,-2.62303 -2.89187,0.40222 -5.32355,1.48247 -7.2392,3.21596 -0.66068,0.59785 -1.91112,2.13554 -1.91112,2.35013 0,0.16381 0.56859,0.14444 11.60401,-0.39544 z"
       id="path3793"
       inkscape:connector-curvature="0" />
  </g>
</svg>
